<svg width="201" height="31" viewBox="0 0 201 31" fill="none" xmlns="http://www.w3.org/2000/svg">
<path d="M29.644 4.62V30H22.588V15.996L17.8 30H11.896L7.072 15.888V30H0.0160001V4.62H8.548L14.92 21.108L21.148 4.62H29.644ZM43.0565 30.252C41.0405 30.252 39.2285 29.832 37.6205 28.992C36.0365 28.152 34.7885 26.952 33.8765 25.392C32.9645 23.832 32.5085 21.996 32.5085 19.884C32.5085 17.796 32.9645 15.972 33.8765 14.412C34.8125 12.852 36.0725 11.652 37.6565 10.812C39.2645 9.972 41.0765 9.552 43.0925 9.552C45.1085 9.552 46.9085 9.972 48.4925 10.812C50.1005 11.652 51.3605 12.852 52.2725 14.412C53.2085 15.972 53.6765 17.796 53.6765 19.884C53.6765 21.972 53.2085 23.808 52.2725 25.392C51.3605 26.952 50.1005 28.152 48.4925 28.992C46.8845 29.832 45.0725 30.252 43.0565 30.252ZM43.0565 24.132C44.0405 24.132 44.8565 23.772 45.5045 23.052C46.1765 22.308 46.5125 21.252 46.5125 19.884C46.5125 18.516 46.1765 17.472 45.5045 16.752C44.8565 16.032 44.0525 15.672 43.0925 15.672C42.1325 15.672 41.3285 16.032 40.6805 16.752C40.0325 17.472 39.7085 18.516 39.7085 19.884C39.7085 21.276 40.0205 22.332 40.6445 23.052C41.2685 23.772 42.0725 24.132 43.0565 24.132ZM66.2313 23.34L70.0113 9.804H77.5353L70.5873 30H61.8033L54.8553 9.804H62.3793L66.2313 23.34ZM83.4902 7.932C82.2422 7.932 81.2342 7.596 80.4662 6.924C79.7222 6.228 79.3502 5.364 79.3502 4.332C79.3502 3.276 79.7222 2.4 80.4662 1.704C81.2342 1.008 82.2422 0.659998 83.4902 0.659998C84.7142 0.659998 85.6982 1.008 86.4422 1.704C87.2102 2.4 87.5942 3.276 87.5942 4.332C87.5942 5.364 87.2102 6.228 86.4422 6.924C85.6982 7.596 84.7142 7.932 83.4902 7.932ZM86.9822 9.804V30H79.9262V9.804H86.9822ZM110.296 19.668C110.296 20.22 110.26 20.772 110.188 21.324H96.8324C96.9044 22.428 97.2044 23.256 97.7324 23.808C98.2844 24.336 98.9804 24.6 99.8204 24.6C100.996 24.6 101.836 24.072 102.34 23.016H109.864C109.552 24.408 108.94 25.656 108.028 26.76C107.14 27.84 106.012 28.692 104.644 29.316C103.276 29.94 101.764 30.252 100.108 30.252C98.1164 30.252 96.3404 29.832 94.7804 28.992C93.2444 28.152 92.0324 26.952 91.1444 25.392C90.2804 23.832 89.8484 21.996 89.8484 19.884C89.8484 17.772 90.2804 15.948 91.1444 14.412C92.0084 12.852 93.2084 11.652 94.7444 10.812C96.3044 9.972 98.0924 9.552 100.108 9.552C102.1 9.552 103.864 9.96 105.4 10.776C106.936 11.592 108.136 12.768 109 14.304C109.864 15.816 110.296 17.604 110.296 19.668ZM103.096 17.904C103.096 17.04 102.808 16.368 102.232 15.888C101.656 15.384 100.936 15.132 100.072 15.132C99.2084 15.132 98.5004 15.372 97.9484 15.852C97.3964 16.308 97.0364 16.992 96.8684 17.904H103.096Z" fill="white"/>
<path d="M112.32 17.256C112.32 14.76 112.836 12.54 113.868 10.596C114.924 8.628 116.412 7.104 118.332 6.024C120.252 4.92 122.46 4.368 124.956 4.368C128.124 4.368 130.788 5.22 132.948 6.924C135.108 8.604 136.5 10.896 137.124 13.8H129.528C129.072 12.84 128.436 12.108 127.62 11.604C126.828 11.1 125.904 10.848 124.848 10.848C123.216 10.848 121.908 11.436 120.924 12.612C119.964 13.764 119.484 15.312 119.484 17.256C119.484 19.224 119.964 20.796 120.924 21.972C121.908 23.124 123.216 23.7 124.848 23.7C125.904 23.7 126.828 23.448 127.62 22.944C128.436 22.44 129.072 21.708 129.528 20.748H137.124C136.5 23.652 135.108 25.956 132.948 27.66C130.788 29.34 128.124 30.18 124.956 30.18C122.46 30.18 120.252 29.64 118.332 28.56C116.412 27.456 114.924 25.932 113.868 23.988C112.836 22.02 112.32 19.776 112.32 17.256ZM149.861 30.252C147.845 30.252 146.033 29.832 144.425 28.992C142.841 28.152 141.593 26.952 140.681 25.392C139.769 23.832 139.313 21.996 139.313 19.884C139.313 17.796 139.769 15.972 140.681 14.412C141.617 12.852 142.877 11.652 144.461 10.812C146.069 9.972 147.881 9.552 149.897 9.552C151.913 9.552 153.713 9.972 155.297 10.812C156.905 11.652 158.165 12.852 159.077 14.412C160.013 15.972 160.481 17.796 160.481 19.884C160.481 21.972 160.013 23.808 159.077 25.392C158.165 26.952 156.905 28.152 155.297 28.992C153.689 29.832 151.877 30.252 149.861 30.252ZM149.861 24.132C150.845 24.132 151.661 23.772 152.309 23.052C152.981 22.308 153.317 21.252 153.317 19.884C153.317 18.516 152.981 17.472 152.309 16.752C151.661 16.032 150.857 15.672 149.897 15.672C148.937 15.672 148.133 16.032 147.485 16.752C146.837 17.472 146.513 18.516 146.513 19.884C146.513 21.276 146.825 22.332 147.449 23.052C148.073 23.772 148.877 24.132 149.861 24.132ZM170.408 13.368C171.2 12.216 172.16 11.304 173.288 10.632C174.416 9.96 175.628 9.624 176.924 9.624V17.148H174.944C173.408 17.148 172.268 17.448 171.524 18.048C170.78 18.648 170.408 19.692 170.408 21.18V30H163.352V9.804H170.408V13.368ZM192.666 9.624C194.994 9.624 196.842 10.404 198.21 11.964C199.578 13.5 200.262 15.588 200.262 18.228V30H193.206V19.164C193.206 18.012 192.906 17.112 192.306 16.464C191.706 15.792 190.902 15.456 189.894 15.456C188.838 15.456 188.01 15.792 187.41 16.464C186.81 17.112 186.51 18.012 186.51 19.164V30H179.454V9.804H186.51V12.684C187.134 11.772 187.974 11.04 189.03 10.488C190.086 9.912 191.298 9.624 192.666 9.624Z" fill="#E50915"/>
</svg>
